<svg xmlns="http://www.w3.org/2000/svg" xmlns:xlink="http://www.w3.org/1999/xlink">
  <defs>
    <symbol id="icon-validate" viewBox="0 0 100 100">
      <title>Validate</title>
      <polygon points="
        0,40
        0,60
        35,100
        100,20
        100,0
        35,80" style="stroke:none;" />
    </symbol>

    <symbol id="icon-add" viewBox="0 0 100 100">
      <title>Add new</title>
      <rect x="33" y="0" style="stroke:none;" id="e1_rectangle" width="34" height="100" rx="5" ry="5"/>
      <rect x="0" y="33" style="stroke:none;" id="e2_rectangle" width="100" height="34" rx="5" ry="5"/>
    </symbol>

    <symbol id="icon-cancel" viewBox="0 0 100 100">
      <title>Cancel</title>
      <polygon points="
        0,10
        40,50
        0,90
        10,100
        50,60
        90,100
        100,90
        60,50
        100,10
        90,0
        50,40
        10,0" style="stroke:none;" />
    </symbol>

    <symbol id="icon-delete" viewBox="0 0 100 100">
      <title>Delete</title>
      <rect x="15" y="21" style="stroke-width:8;fill:none;" id="e17_rectangle" width="70" height="75" rx="5" ry="5"/>
      <rect x="32.5" y="4" style="stroke-width:8;fill:none;" id="e17_rectangle" width="35" height="17" rx="5" ry="5"/>
      <rect x="0" y="17" style="stroke:none;" id="e17_rectangle" width="100" height="8"/>
      <rect x="32" y="40" style="" id="e5_rectangle" width="6" height="45"/>
      <rect x="47" y="40" style="" id="e6_rectangle" width="6" height="45"/>
      <rect x="62" y="40" style="" id="e7_rectangle" width="6" height="45"/>
    </symbol>

    <symbol id="icon-edit" viewBox="0 0 100 100">
      <title>Edit</title>
      <rect x="6" y="14" style="fill:none; stroke:rgb(150,150,150); stroke-width: 6px;" id="e1_rectangle" width="80" height="80" rx="10" ry="10"/>
      <path d="M-6.745227108864344,0.000001111724025l4.098353023234727,-7.914865027589495h-7.278926502895874Z" style="fill: rgb(130,130,130); vector-effect: non-scaling-stroke;" id="e6_shape" transform="matrix(2 2 -2 2 26 100)"/>
      <rect x="40" y="65" style="fill:rgb(130,130,130);stroke:#000082;stroke-width:0px;" id="e9_rectangle" width="45" height="15" transform="matrix(1 -1 1 1 -80 35)" rx="1" ry="1"/>
      <rect x="87.75" y="64.75" style="fill:rgb(130,130,130);stroke:#000082;stroke-width:0px;" id="e10_rectangle" width="10" height="15" transform="matrix(1 -1 1 1 -80 35)" rx="3" ry="3"/>
    </symbol>

    <symbol id="icon-submit" viewBox="0 0 100 100">
      <title>Submit</title>
      <polygon points="
        50,10
        50,20
        15,20
        50,45
        50,55
        10,28
        10,80
        90,80
        90,28
        50,55
        50,45
        85,20
        50,20
        50,10
        100,10
        100,90
        0,90
        0,10
      " style="stroke:none;" />
    </symbol>
  </defs>
</svg>
